<?xml version="1.0" encoding="UTF-8"?>
<svg xmlns="http://www.w3.org/2000/svg" id="Capa_40" data-name="Capa 40" viewBox="0 0 24 24">
  <path d="m12,0C5.373,0,0,5.373,0,12s5.373,12,12,12,12-5.373,12-12S18.627,0,12,0h0Zm.157,18.863h-.003c-1.174,0-2.328-.295-3.352-.854l-3.719.976.996-3.635c-.614-1.063-.937-2.27-.937-3.507.002-3.868,3.148-7.014,7.015-7.014,1.876,0,3.638.731,4.962,2.057,1.324,1.326,2.054,3.088,2.053,4.963-.001,3.868-3.149,7.014-7.015,7.014h0Zm.002-12.85c-3.216,0-5.832,2.615-5.833,5.83,0,1.102.308,2.175.891,3.103l.139.221-.589,2.151,2.206-.579.213.126c.895.531,1.921.812,2.968.813h.002c3.214,0,5.829-2.616,5.83-5.83,0-1.558-.605-3.023-1.706-4.125-1.101-1.102-2.565-1.709-4.122-1.71h0Zm3.429,8.337c-.146.41-.846.783-1.183.833-.302.045-.684.064-1.104-.069-.255-.081-.581-.188-.999-.369-1.758-.759-2.907-2.53-2.994-2.647-.088-.117-.716-.95-.716-1.813s.453-1.287.614-1.462c.161-.175.351-.219.467-.219s.234.001.336.006c.107.006.252-.041.394.301.146.351.497,1.214.541,1.302.044.088.073.19.015.307-.059.117-.088.19-.175.292-.088.102-.184.229-.263.307-.088.087-.179.182-.077.358.102.176.454.749.975,1.214.67.597,1.234.782,1.41.87.175.088.277.073.38-.044.103-.117.438-.512.555-.687.117-.176.234-.146.395-.088.16.059,1.022.482,1.198.57.175.088.292.131.336.204.044.073.044.424-.102.833h0Zm0,0"/>
</svg>
